<svg xmlns="http://www.w3.org/2000/svg" xmlns:xlink="http://www.w3.org/1999/xlink" width="40" height="40" viewBox="0 0 40 40"><defs><path id="vnpsa" d="M808.08 2975.8c0 3.05-1.58 4.57-3.41 4.57-1.79 0-3.33-1.45-3.35-4.35 0-2.93 1.56-4.56 3.46-4.56 2 0 3.3 1.56 3.3 4.33zm-1.52.08c0-1.76-.5-3.23-1.85-3.23-1.21 0-1.87 1.45-1.87 3.28-.02 1.85.68 3.26 1.87 3.26 1.28 0 1.85-1.39 1.85-3.3zm-11.23-1.52c-1.79 0-3.33-1.45-3.35-4.37 0-2.9 1.56-4.53 3.46-4.53 2 0 3.32 1.56 3.32 4.33 0 3.05-1.58 4.57-3.43 4.57zm.04-1.18c1.28 0 1.85-1.38 1.85-3.3 0-1.77-.5-3.24-1.85-3.24-1.2 0-1.85 1.45-1.85 3.28-.04 1.85.64 3.26 1.85 3.26zm9.47-7.57l-8.41 14.72h-1.24l8.42-14.72zm13.94 14.28l-4.2 1.6.73 4.5-4.5.04-.82 4.48-4.24-1.51-2.29 3.92-3.47-2.9-3.47 2.9-2.29-3.92-4.24 1.51-.82-4.48-4.49-.05.73-4.5-4.2-1.6 2.2-3.96-3.4-2.96 3.4-2.97-2.2-3.97 4.2-1.6-.73-4.5 4.5-.04.82-4.48 4.24 1.52 2.28-3.92 3.47 2.9 3.48-2.9 2.28 3.92 4.24-1.51.83 4.48 4.49.04-.73 4.5 4.2 1.6-2.2 3.96 3.4 2.97-3.4 2.96zm-2.74-1.01l-1.12-2.01-.76-1.38 1.18-1.03 1.73-1.5-1.73-1.51-1.18-1.03.76-1.37 1.13-2.02-2.14-.8-1.46-.56.26-1.56.37-2.28-2.28-.03-1.56-.01-.29-1.56-.41-2.27-2.16.77-1.46.52-.8-1.36-1.16-1.99-1.76 1.47-1.2 1-1.21-1-1.76-1.47-1.16 2-.8 1.35-1.46-.52-2.15-.77-.42 2.27-.29 1.56-1.56.01-2.28.03.37 2.28.26 1.56-1.46.55-2.14.81 1.12 2.01.77 1.38-1.18 1.03-1.74 1.5 1.74 1.51 1.18 1.03-.77 1.38-1.12 2 2.14.82 1.46.55-.26 1.56-.37 2.28 2.28.03 1.56.01.29 1.56.41 2.27 2.15-.77 1.47-.52.8 1.36 1.16 1.99 1.76-1.47 1.2-1 1.21 1 1.76 1.47 1.16-2 .8-1.35 1.46.53 2.15.76.42-2.27.29-1.55 1.56-.02 2.28-.02-.37-2.28-.26-1.56 1.46-.56z"/></defs><g><g transform="translate(-780 -2953)"><use fill="#f16d7f" xlink:href="#vnpsa"/></g></g></svg>