<svg xmlns="http://www.w3.org/2000/svg" xmlns:xlink="http://www.w3.org/1999/xlink" width="45" height="32" viewBox="0 0 45 32"><defs><path id="e7efa" d="M400.07 2979.3a2.77 2.77 0 0 1-2.75 2.78 2.77 2.77 0 0 1-2.75-2.78 2.77 2.77 0 0 1 2.75-2.78c.51 0 .93.42.93.94s-.42.94-.93.94c-.5 0-.9.4-.9.9s.4.9.9.9c.49 0 .89-.4.89-.9 0-.52.41-.94.93-.94.51 0 .93.42.93.94zm26.46 0a2.77 2.77 0 0 1-2.75 2.78 2.77 2.77 0 0 1-2.75-2.78 2.77 2.77 0 0 1 2.75-2.78c.51 0 .93.42.93.94s-.42.94-.93.94c-.5 0-.9.4-.9.9s.4.9.9.9.9-.4.9-.9c0-.52.4-.94.92-.94.51 0 .93.42.93.94zm6.49-12.46v12.46c0 .52-.42.94-.93.94h-2.82a5.6 5.6 0 0 1-5.49 4.7 5.6 5.6 0 0 1-5.5-4.7h-15.47a5.6 5.6 0 0 1-5.5 4.7 5.6 5.6 0 0 1-5.49-4.7h-1.93a1.87 1.87 0 0 1-1.86-1.88v-23.49c0-1.03.83-1.87 1.86-1.87h25.55c1.02 0 1.85.84 1.85 1.87v1.9h7.12c.09 0 .17.02.24.04 2.3.2 3.46 1.4 4.68 3.46l3.56 6.1c.08.14.13.3.13.47zm-3.67 4.03h1.81v-1.85h-.88a.93.93 0 0 0-.93.94zm-1.51-9.46h-6.9v3.76c0 .53.42.96.95.96l.19.01h8.52zm-37.95 16.95h1.93a5.6 5.6 0 0 1 5.5-4.7 5.6 5.6 0 0 1 5.49 4.7h12.63v-23.49h-25.55zm11.14.94a3.74 3.74 0 0 0-3.71-3.76 3.74 3.74 0 0 0-3.72 3.76 3.74 3.74 0 0 0 3.72 3.76 3.74 3.74 0 0 0 3.71-3.76zm26.47 0a3.74 3.74 0 0 0-3.72-3.76 3.74 3.74 0 0 0-3.72 3.76 3.74 3.74 0 0 0 3.72 3.76 3.74 3.74 0 0 0 3.72-3.76zm1.77-.94h1.89v-5.62h-2.74a.93.93 0 0 1-.92-.93v-1.85c0-.75.29-1.43.76-1.94h-6.37a.92.92 0 0 1-.23-.03 2.83 2.83 0 0 1-2.58-2.82v-4.7c0-.52.42-.94.93-.94h6.48c-.65-.62-1.39-.88-2.57-.88h-6.63v19.71h1a5.6 5.6 0 0 1 5.5-4.7 5.6 5.6 0 0 1 5.48 4.7zm-37.49-20.64c0-.52.42-.94.93-.94h19.9c.52 0 .93.42.93.94 0 .51-.41.93-.93.93h-19.9a.93.93 0 0 1-.93-.93z"/></defs><g><g transform="translate(-388 -2953)"><use fill="#f16d7f" xlink:href="#e7efa"/></g></g></svg>