<svg xmlns="http://www.w3.org/2000/svg" xmlns:xlink="http://www.w3.org/1999/xlink" width="29" height="29" viewBox="0 0 29 29"><defs><path id="r3cva" d="M1479.34 35.97c0-2.63.83-5.1 2.33-6.97a7.45 7.45 0 0 1 5.83-3c4.5 0 8.16 4.47 8.16 9.97 0 5.5-3.66 9.97-8.16 9.97s-8.16-4.48-8.16-9.97zm1.82 0c0 4.5 2.84 8.16 6.34 8.16s6.34-3.66 6.34-8.16-2.84-8.16-6.34-8.16-6.34 3.66-6.34 8.16zM1502 52.28c0 1.5-1.22 2.72-2.72 2.72h-23.56a2.72 2.72 0 0 1-2.72-2.72c0-4.5 3.66-8.16 8.16-8.16a.9.9 0 1 1 0 1.82 6.35 6.35 0 0 0-6.35 6.34c0 .5.41.9.9.9h23.57c.5 0 .9-.4.9-.9 0-3.5-2.84-6.34-6.34-6.34a.9.9 0 1 1 0-1.82c4.5 0 8.16 3.66 8.16 8.16z"/></defs><g><g transform="translate(-1473 -26)"><use fill="#555" xlink:href="#r3cva"/></g></g></svg>