<svg xmlns="http://www.w3.org/2000/svg" xmlns:xlink="http://www.w3.org/1999/xlink" width="47" height="35" viewBox="0 0 47 35"><defs><path id="29gsa" d="M1213.03 2966.06c0 2.13-1.51 3.91-3.54 4.4v12.29c0 .08-.03.16-.05.24.03.12.05.25.05.39 0 4.41-17.93 4.54-19.97 4.54-2.04 0-19.96-.13-19.96-4.54 0-.14.02-.27.05-.39-.02-.08-.05-.16-.05-.24v-12.3a4.56 4.56 0 0 1-3.54-4.39 4.6 4.6 0 0 1 4.64-4.53 4.6 4.6 0 0 1 4.65 4.53c0 1.34-.61 2.54-1.56 3.37l5.86 2.06 8.35-9.7a4.54 4.54 0 0 1-3.05-4.24 4.6 4.6 0 0 1 4.65-4.54 4.6 4.6 0 0 1 4.64 4.54c0 1.97-1.3 3.63-3.1 4.25l8.35 9.69 5.86-2.06a4.46 4.46 0 0 1-1.56-3.37 4.6 4.6 0 0 1 4.64-4.53 4.6 4.6 0 0 1 4.64 4.53zm-23.47-6.18a2.36 2.36 0 0 0 2.38-2.33 2.36 2.36 0 0 0-2.38-2.33 2.36 2.36 0 0 0-2.39 2.33 2.36 2.36 0 0 0 2.39 2.33zm-17.74 11.22v9.94c4.88-2.13 16.11-2.2 17.7-2.2 1.6 0 12.82.07 17.7 2.2v-9.94l-7.75 2.72c-.45.16-.94.03-1.25-.33l-8.7-10.1-8.7 10.1c-.3.36-.8.49-1.24.33zm34.27 12.75c.45-.17.79-.33.99-.47-.72-.52-3.06-1.24-6.96-1.73-2.76-.36-6.28-.6-10.6-.6-4.3 0-7.83.24-10.58.6-3.9.5-6.24 1.2-6.97 1.73.2.14.55.3 1 .47 2.3.85 7.85 1.86 16.56 1.86 8.7 0 14.25-1 16.56-1.86zm-35.42-15.46a2.36 2.36 0 0 0 2.38-2.33 2.36 2.36 0 0 0-2.38-2.32 2.36 2.36 0 0 0-2.39 2.32 2.36 2.36 0 0 0 2.39 2.33zm40.1-2.33a2.36 2.36 0 0 0-2.38-2.32 2.36 2.36 0 0 0-2.38 2.32 2.36 2.36 0 0 0 2.38 2.33 2.37 2.37 0 0 0 2.39-2.33z"/></defs><g><g transform="translate(-1166 -2953)"><use fill="#f16d7f" xlink:href="#29gsa"/></g></g></svg>