<svg xmlns="http://www.w3.org/2000/svg" xmlns:xlink="http://www.w3.org/1999/xlink" width="26" height="27" viewBox="0 0 26 27"><defs><path id="o7yda" d="M121.73 53.37c.36.38.36.98 0 1.34a.9.9 0 0 1-1.32 0l-7.75-7.8a10.32 10.32 0 0 1-6.24 2.09A10.47 10.47 0 0 1 96 38.5c0-5.78 4.67-10.5 10.42-10.5s10.42 4.72 10.42 10.5c0 2.75-1.07 5.26-2.78 7.13zm-15.31-6.27a8.56 8.56 0 0 0 8.53-8.6c0-4.75-3.83-8.6-8.53-8.6a8.57 8.57 0 0 0-8.53 8.6c0 4.73 3.82 8.6 8.53 8.6z"/></defs><g><g transform="translate(-96 -28)"><use fill="#555" xlink:href="#o7yda"/></g></g></svg>